<svg xmlns="http://www.w3.org/2000/svg" width="136" height="34"><g fill="none"><path fill="#FFF" d="M16.556 33.984c-6.89.009-12.572-5.392-12.915-12.273v-.025a3.08 3.08 0 0 1-2.601-2.3C.679 17.972.19 15.86.132 13.83a2.889 2.889 0 0 1 1.713-2.732c1.054-.473 2.557-.86 4.452-1.153 1.06-2.45 2.311-4.58 3.634-6.185C11.992 1.265 14.221 0 16.556 0s4.562 1.265 6.62 3.761c1.317 1.605 2.573 3.732 3.631 6.177 1.882.284 3.383.673 4.466 1.155a2.885 2.885 0 0 1 1.714 2.727c-.058 2.041-.546 4.154-.907 5.565a3.08 3.08 0 0 1-2.605 2.303v.023c-.353 6.88-6.036 12.276-12.925 12.272l.005.001h.001z"/><path fill="#FCFBFA" d="M16.548 2.15c5.983 0 10.834 12.86 10.834 18.844 0 5.984-4.85 10.835-10.835 10.835-5.983 0-10.834-4.85-10.834-10.835C5.714 15.01 10.565 2.15 16.548 2.15z"/><path fill="#252526" d="M30.286 12.529l-4.42 1.559s.684 2.08.69 2.095c.007.016 4.404-.567 4.404-.567l-.674-3.087zm-27.476 0l4.42 1.559s-.683 2.08-.69 2.095c-.006.016-4.402-.567-4.402-.567l.673-3.087H2.81z"/><path fill="#E0E0E0" d="M12 12.16c.69-.016 1.284.48 1.393 1.16.14.752.233 1.513.277 2.278a2.91 2.91 0 0 1-.058.638 18.369 18.369 0 0 0-.218-1.532 1.378 1.378 0 0 0-1.393-1.16c-1.66.017-3.32.143-4.964.378.156-.484.323-.97.502-1.45 1.48-.193 2.97-.297 4.461-.312zm15.362 8.353c-3.902-.201-7.235-1.45-7.987-1.896-.587-.28-1.335-.875-1.55-2.362-.144 1.638.165 3.13 1.703 3.867.113.068 3.057 1.525 7.808 1.775.038-.46.047-.923.026-1.384zm-21.616 0c3.902-.201 7.235-1.45 7.987-1.896.587-.28 1.335-.875 1.55-2.362.144 1.638-.165 3.13-1.703 3.867-.113.068-3.057 1.525-7.808 1.775-.038-.46-.047-.923-.026-1.384zm15.339-8.353a1.378 1.378 0 0 0-1.393 1.16c-.14.752-.232 1.513-.276 2.278a2.85 2.85 0 0 0 .058.638c.055-.551.131-1.076.217-1.532a1.38 1.38 0 0 1 1.393-1.16c1.661.017 3.32.143 4.964.378a34.01 34.01 0 0 0-.502-1.45 37.504 37.504 0 0 0-4.46-.312h-.001z"/><path fill="#56555C" d="M7.071 10.988c1.064-2.58 2.34-4.813 3.69-6.457 1.839-2.23 3.785-3.36 5.784-3.36 2 0 3.946 1.13 5.784 3.358 1.355 1.642 2.636 3.875 3.69 6.458l.052.132-.132-.019c-.376-.05-.681-.086-1.054-.132h-.047l-.018-.042c-1.197-2.794-3.24-6.443-5.879-7.967a4.777 4.777 0 0 0-2.396-.696 4.777 4.777 0 0 0-2.395.696c-2.633 1.522-4.67 5.154-5.877 7.963l-.018.042h-.046c-.376.04-.682.077-1.055.132l-.131.019.048-.127zm20.415 8.176c-.294-.008-.59-.02-.882-.037h-.09l-.012-.091c-.264-2.054-.854-4.46-1.674-6.771l-.053-.173.178.024c.335.045.659.095.975.148l.065.01.021.062c.79 2.308 1.35 4.689 1.59 6.705l.015.132-.133-.01v.001z"/><path fill="#252526" d="M26.52 13.96c-.16-.544-.33-1.085-.513-1.622l-.02-.062-.065-.011c-.311-.053-.64-.103-.975-.148l-.172-.025.06.17c.181.512.351 1.028.51 1.546.562.065.88.11 1.175.152z"/><path fill="#56555C" d="M5.572 18.995c.24-2.016.805-4.397 1.59-6.705l.021-.062.065-.012c.311-.052.64-.103.975-.147l.178-.024-.06.169c-.818 2.311-1.412 4.715-1.673 6.77l-.012.092h-.09c-.293.017-.59.029-.882.036h-.132l.02-.117z"/><path fill="#252526" d="M7.248 12.216l-.065.01-.02.063c-.183.538-.354 1.08-.513 1.625.55-.07.709-.062 1.169-.111.162-.527.336-1.064.527-1.59l.06-.168-.179.024a35.3 35.3 0 0 0-.979.147z"/><path fill="#56555C" d="M16.548 32.802A11.814 11.814 0 0 1 5.556 25.32a11.96 11.96 0 0 1-.812-4.808v-.074h.074c.385-.01.648-.02.922-.034h.086v.085a10.727 10.727 0 1 0 21.428.002v-.086h.086c.383.02.647.028.922.034h.074v.074a11.962 11.962 0 0 1-.793 4.805 11.802 11.802 0 0 1-10.992 7.486h-.003v-.002z"/><path fill="#252526" d="M5.863 21.898c-.038-.47-.048-.943-.029-1.415v-.086h-.086c-.276.015-.54.025-.922.035h-.074v.073c-.016.474-.006.948.032 1.42h.035c.356 0 .704-.016 1.035-.032l.009.005zm22.482-1.461h-.074c-.279 0-.543-.015-.922-.034h-.086v.085c.02.468.01.936-.027 1.402l1.08.047c.038-.473.048-.946.032-1.42l-.003-.08z"/><path fill="#252526" d="M28.954 20.678a25.72 25.72 0 0 1-6.692-.86c-.94-.247-1.855-.58-2.734-.991l-.021-.016c-1.845-.882-1.913-2.65-1.741-4.262.043-.407-.106-.946-.535-1.232a1.218 1.218 0 0 0-1.352 0c-.43.284-.579.822-.536 1.228.172 1.613.1 3.381-1.74 4.263l-.021.01a16.11 16.11 0 0 1-2.735 1.003c-2.183.58-4.433.868-6.692.86h-.01a2.064 2.064 0 0 1-1.977-1.562c-.35-1.353-.817-3.38-.871-5.282a1.875 1.875 0 0 1 1.11-1.772c2.54-1.127 7.682-1.551 9.875-1.522.765-.006 1.5.298 2.038.842a5.476 5.476 0 0 1 2.24-.517 5.474 5.474 0 0 1 2.24.515 2.825 2.825 0 0 1 2.022-.84c1.318-.02 6.984.225 9.883 1.515a1.867 1.867 0 0 1 1.11 1.765c-.054 1.905-.527 3.943-.866 5.293a2.064 2.064 0 0 1-1.977 1.562h-.018zm-7.856-8.434a1.305 1.305 0 0 0-1.317 1.095c-.14.75-.232 1.507-.277 2.268-.01.87.302 1.465.922 1.77 2.324 1.036 5.024 1.548 8.255 1.564a.548.548 0 0 0 .527-.408c.307-1.2.721-2.985.769-4.626a.385.385 0 0 0-.23-.365c-2.204-.991-6.927-1.33-8.649-1.303v.005zm-17.75 1.295a.385.385 0 0 0-.229.365c.048 1.637.462 3.427.769 4.626.062.24.279.408.527.409 3.234-.016 5.93-.528 8.261-1.566.622-.303.933-.9.923-1.773a18.067 18.067 0 0 0-.278-2.265 1.305 1.305 0 0 0-1.318-1.095c-1.003-.016-6.158.187-8.654 1.3l-.001-.001zM47.765 20.49c-.13.457-.335.891-.605 1.283-.276.405-.616.76-1.008 1.054a4.85 4.85 0 0 1-1.39.712 5.51 5.51 0 0 1-1.752.263 5.74 5.74 0 0 1-2.058-.371 4.981 4.981 0 0 1-1.714-1.093c-.508-.5-.91-1.1-1.178-1.762a6.053 6.053 0 0 1-.435-2.356 5.86 5.86 0 0 1 .425-2.27 5.29 5.29 0 0 1 1.136-1.73 5.101 5.101 0 0 1 1.644-1.105 4.937 4.937 0 0 1 1.932-.396c1.627 0 2.894.484 3.8 1.45.905.966 1.356 2.287 1.35 3.963 0 .198-.007.386-.02.562-.01.102-.017.205-.022.308H40.4c.01.329.094.651.243.944.29.577.786 1.024 1.39 1.253.319.122.657.184.998.181.665 0 1.185-.148 1.56-.445.375-.298.659-.695.817-1.147l2.357.701v.001zm-2.636-3.418a2.558 2.558 0 0 0-.16-.754 1.819 1.819 0 0 0-.424-.658 2.192 2.192 0 0 0-.722-.467 2.68 2.68 0 0 0-1.03-.18 2.36 2.36 0 0 0-.976.19 2.404 2.404 0 0 0-.722.49c-.374.369-.6.861-.638 1.385l4.672-.006zm6.418 6.305c.085.553.366 1.057.79 1.422.425.367.977.551 1.656.552.89 0 1.577-.23 2.058-.69.482-.459.722-1.198.722-2.217v-.765a2.873 2.873 0 0 1-1.04.923c-.48.276-1.103.414-1.867.414a4.848 4.848 0 0 1-1.932-.383 4.604 4.604 0 0 1-1.539-1.06 4.997 4.997 0 0 1-1.019-1.603 5.62 5.62 0 0 1-.01-3.99c.23-.598.568-1.149.997-1.624a4.612 4.612 0 0 1 1.524-1.1 4.732 4.732 0 0 1 1.977-.403c.834 0 1.493.148 1.976.445.484.297.816.622.998.976V13.04h2.716v9.317a6.916 6.916 0 0 1-.308 2.069 4.612 4.612 0 0 1-2.664 2.95c-.693.304-1.527.456-2.504.456a5.93 5.93 0 0 1-1.963-.307 5.263 5.263 0 0 1-1.545-.827 4.3 4.3 0 0 1-1.06-1.21 3.918 3.918 0 0 1-.51-1.426l2.547-.685zm2.802-2.78a2.343 2.343 0 0 0 1.772-.723c.46-.48.69-1.125.69-1.932 0-.807-.241-1.447-.722-1.919a2.39 2.39 0 0 0-1.74-.711 2.66 2.66 0 0 0-.987.18 2.25 2.25 0 0 0-.791.527c-.23.242-.41.527-.527.838a2.945 2.945 0 0 0-.191 1.082c0 .82.233 1.468.7 1.943a2.422 2.422 0 0 0 1.796.714v.001zm9.068 2.78c.085.553.365 1.057.79 1.422.425.367.976.551 1.655.552.891 0 1.577-.23 2.059-.69.481-.459.722-1.198.722-2.217v-.765a2.873 2.873 0 0 1-1.04.923c-.481.276-1.104.414-1.867.414a4.848 4.848 0 0 1-1.932-.383 4.604 4.604 0 0 1-1.54-1.06 4.997 4.997 0 0 1-1.018-1.603 5.62 5.62 0 0 1-.01-3.99c.23-.598.568-1.149.997-1.624a4.612 4.612 0 0 1 3.499-1.503c.835 0 1.494.148 1.977.445.483.297.815.622.997.976V13.04h2.716v9.317a6.916 6.916 0 0 1-.308 2.069 4.612 4.612 0 0 1-2.663 2.95c-.693.304-1.528.456-2.504.456a5.93 5.93 0 0 1-1.964-.307 5.263 5.263 0 0 1-1.543-.827 4.3 4.3 0 0 1-1.06-1.21 3.918 3.918 0 0 1-.51-1.426l2.547-.685zm2.801-2.78a2.343 2.343 0 0 0 1.773-.723c.46-.48.689-1.125.689-1.932 0-.807-.24-1.447-.722-1.919a2.39 2.39 0 0 0-1.741-.711 2.66 2.66 0 0 0-.984.184 2.25 2.25 0 0 0-.791.527c-.23.241-.41.527-.527.838a2.945 2.945 0 0 0-.191 1.082c0 .82.233 1.468.7 1.943a2.422 2.422 0 0 0 1.793.71h.001v.001zm9.408 2.885h-2.529V8.116h2.53v5.799c.339-.41.787-.716 1.293-.88a4.761 4.761 0 0 1 1.53-.264 4.19 4.19 0 0 1 1.728.33c.463.2.876.5 1.21.88.327.384.57.833.711 1.317a5.48 5.48 0 0 1 .234 1.613v6.571H79.51v-6.09a2.372 2.372 0 0 0-.456-1.486c-.304-.396-.796-.594-1.475-.594-.594 0-1.061.194-1.4.583a2.31 2.31 0 0 0-.553 1.45v6.137zm18.015-2.992a4.35 4.35 0 0 1-.605 1.283c-.275.405-.616.76-1.008 1.054a4.85 4.85 0 0 1-1.39.712 5.51 5.51 0 0 1-1.752.263 5.74 5.74 0 0 1-2.058-.371 4.981 4.981 0 0 1-1.713-1.093c-.509-.5-.91-1.1-1.178-1.762a6.053 6.053 0 0 1-.435-2.356 5.841 5.841 0 0 1 .424-2.27 5.29 5.29 0 0 1 1.136-1.73 5.101 5.101 0 0 1 1.645-1.105 4.937 4.937 0 0 1 1.932-.396c1.627 0 2.893.484 3.799 1.45.906.966 1.356 2.287 1.352 3.963 0 .198-.007.386-.021.562a6.37 6.37 0 0 0-.021.308h-7.472c.01.329.094.651.243.944.29.577.786 1.024 1.39 1.253.32.122.657.184.998.181.665 0 1.186-.148 1.56-.445.376-.298.659-.695.818-1.147l2.356.701v.001zm-2.632-3.412a2.558 2.558 0 0 0-.16-.754 1.819 1.819 0 0 0-.423-.66 2.192 2.192 0 0 0-.723-.466 2.68 2.68 0 0 0-1.029-.18 2.36 2.36 0 0 0-1.697.676 2.161 2.161 0 0 0-.637 1.38l4.67.004h-.001zm3.718 3.558a2.891 2.891 0 0 1 .912-2.187c.287-.27.621-.487.987-.636a5.43 5.43 0 0 1 1.22-.34l2.569-.382c.297-.042.502-.13.615-.264a.718.718 0 0 0 .17-.478 1.26 1.26 0 0 0-.435-.956c-.29-.269-.732-.403-1.327-.403-.623 0-1.1.17-1.432.509a1.912 1.912 0 0 0-.563 1.186l-2.504-.527a3.44 3.44 0 0 1 .382-1.231c.219-.42.514-.794.87-1.105a4.39 4.39 0 0 1 1.359-.79 5.224 5.224 0 0 1 1.867-.309 5.954 5.954 0 0 1 2.1.33 3.926 3.926 0 0 1 1.413.862c.359.353.63.786.791 1.262.163.486.246.994.244 1.506v5.14c0 .283.014.583.042.901.028.318.057.57.086.754h-2.595a5.45 5.45 0 0 1-.074-.584 7.955 7.955 0 0 1-.032-.668c-.301.441-.696.81-1.157 1.082-.502.311-1.142.467-1.92.467a4.027 4.027 0 0 1-1.497-.264 3.58 3.58 0 0 1-1.136-.7 2.968 2.968 0 0 1-.955-2.175zm4.181 1.04c.29 0 .58-.038.86-.117a1.8 1.8 0 0 0 .732-.403 2.04 2.04 0 0 0 .509-.743c.139-.37.204-.763.191-1.157v-.465l-2.356.36a1.858 1.858 0 0 0-.923.396c-.247.205-.371.512-.371.923 0 .312.122.613.34.838.225.247.565.37 1.018.37v-.003.001zm16.929-.082c0 .351.007.703.021 1.054.014.351.035.63.064.838h-2.69a3.62 3.62 0 0 1-.074-.509 7.57 7.57 0 0 1-.032-.7 2.9 2.9 0 0 1-1.114 1.04 3.642 3.642 0 0 1-1.815.423 5.028 5.028 0 0 1-2.059-.413 4.744 4.744 0 0 1-1.602-1.147 5.374 5.374 0 0 1-1.054-1.74 6.439 6.439 0 0 1-.01-4.34 5.338 5.338 0 0 1 1.028-1.73 5.026 5.026 0 0 1 4.787-1.45c.298.07.587.175.86.312a2.4 2.4 0 0 1 .585.42c.133.126.244.272.33.434v-5.97h2.775v13.478zm-7.895-3.354c0 .934.244 1.663.733 2.186a2.551 2.551 0 0 0 3.682 0c.495-.527.743-1.263.743-2.207 0-.934-.248-1.652-.743-2.155a2.588 2.588 0 0 0-3.661.01c-.5.511-.75 1.233-.75 2.166h-.004zm9.345 4.146a1.054 1.054 0 0 1 .31-.766 1.02 1.02 0 0 1 .759-.318c.598 0 1.083.485 1.083 1.084.005.286-.11.562-.318.759a1.054 1.054 0 0 1-.765.31 1.054 1.054 0 0 1-1.068-1.068l-.001-.001zm3.55-11.382a1.54 1.54 0 1 1 3.079 0 1.54 1.54 0 0 1-3.078 0h-.001zm.245 12.466v-9.856h2.591v9.855l-2.59.001h-.001zm3.942-4.943c0-2.795 1.958-5.162 5.203-5.162 3.264 0 5.222 2.372 5.222 5.162s-1.958 5.183-5.222 5.183c-3.245.004-5.203-2.382-5.203-5.183zm7.733 0c0-1.53-.898-2.857-2.53-2.857-1.612 0-2.504 1.326-2.504 2.857 0 1.551.897 2.877 2.504 2.877 1.631.005 2.53-1.322 2.53-2.877z"/></g></svg>