<svg xmlns="http://www.w3.org/2000/svg" xmlns:xlink="http://www.w3.org/1999/xlink" width="179" height="53" viewBox="36 15 179 46"><defs><path id="a" d="M159.592 48.54v1.993c0 6.828 3.418 11.65 10.589 11.65 3.621 0 6.501-1.539 8.177-3.817l.67 3.146h6.904V48.54h-8.043v.853c0 3.282-2.078 5.759-5.428 5.759-3.149 0-4.759-2.141-4.759-5.087V48.54h-8.11zm-13.773 12.975h8.043V48.54h-8.043v12.975zM113.155 48.54v.922c0 7.433 3.819 12.722 11.192 12.722 3.553 0 6.301-1.474 7.975-3.749l.604 3.08h6.904V48.54h-8.043v.853c0 3.282-2.078 5.759-5.429 5.759s-5.093-2.409-5.093-5.622v-.99h-8.11zM99.947 61.515h8.042V48.54h-8.042v12.975zM68.127 48.54v.452c0 8.103 5.428 13.191 13.403 13.191 7.977 0 13.338-5.088 13.338-13.191v-.452h-8.042v1.054c0 3.349-1.944 5.76-5.296 5.76-3.351 0-5.294-2.41-5.294-5.76V48.54h-8.109zM55.312 61.515h8.042V48.54h-8.042v12.975zm-18.63 0h8.108V48.54h-8.108v12.975zm26.672-19.8v-1.427c0-7.164-3.484-12.252-10.856-12.252-3.352 0-5.965 1.339-7.708 3.281V16.184h-8.108v25.531h8.108v-.823c0-3.348 2.078-5.826 5.428-5.826 3.352 0 5.094 2.411 5.094 5.691v.958h8.042zm31.513 0v-.488c0-8.035-5.361-13.191-13.338-13.191-7.975 0-13.403 5.156-13.403 13.191v.488h8.108V40.69c0-3.347 1.943-5.826 5.294-5.826 3.352 0 5.295 2.478 5.295 5.826v1.024h8.044zm13.121-25.531h-8.042v25.531h8.042V16.184zm31.842 25.531v-13.01h-6.904l-.604 3.079c-1.675-2.21-4.422-3.749-7.975-3.749-7.372 0-11.192 5.289-11.192 12.722v.958h8.109v-.958c0-3.281 1.743-5.691 5.092-5.691 3.352 0 5.429 2.478 5.429 5.826v.823h8.045zm14.032-25.531h-8.043v25.531h8.043V16.184zm13.839 12.521h-8.109v13.009h8.109V28.705zm18.23 0h-8.043v13.009h8.043V28.705zm22.982 13.01l5.432-8.323v-4.687h-23.59v6.628h13.604l-4.198 6.381h8.752zm5.769 19.8v-6.562h-14.41l4.185-6.411h-8.786l-5.452 8.285v4.688h24.463z"/></defs><clipPath id="b"><use xlink:href="#a" overflow="visible"/></clipPath><linearGradient id="c" gradientUnits="userSpaceOnUse" x1="-192.638" y1="801.289" x2="-14.343" y2="801.289" gradientTransform="matrix(-1 0 0 1 22.114 -761.786)"><stop offset="0" stop-color="#e6007d"/><stop offset="1" stop-color="#ffdc00"/></linearGradient><path clip-path="url(#b)" fill="url(#c)" d="M0 0h215v63H0z"/></svg>