<svg xmlns="http://www.w3.org/2000/svg" width="386" height="64" viewBox="0 28 290 8"><path d="M270.096 8v6.707h13.207v34.585h-13.207V56H290V8h-19.904zM19.903 8v6.707H6.696v34.585h13.207V56H0V8h19.903zm217.441 12.634h17.406v4.525h-12.362v4.69h10.879v4.525h-10.88v4.856h12.529v4.524h-17.572v-23.12zm-28.62 0h5.473l6.066 9.777 6.065-9.777h5.473v23.12h-5.044V28.66l-6.494 9.876h-.132l-6.429-9.777v14.995h-4.978v-23.12zm-9.83 11.626v-.066c0-3.963-2.9-7.266-6.988-7.266-4.088 0-6.923 3.237-6.923 7.2v.066c0 3.964 2.901 7.267 6.988 7.267 4.089 0 6.924-3.237 6.924-7.2m-19.22 0v-.067c0-6.573 5.176-11.957 12.296-11.957 7.122 0 12.231 5.318 12.231 11.891v.066c0 6.573-5.175 11.957-12.296 11.957-7.12 0-12.23-5.318-12.23-11.89m-24.037-11.627h5.076v9.15h9.363v-9.15h5.076v23.12h-5.076v-9.28h-9.363v9.28h-5.076v-23.12zm-11.4 14.665l-5.242-11.792-5.275 11.792h10.516zm-6.43-14.83h2.44l10.517 23.286h-2.802l-2.703-6.111H132.7l-2.737 6.11h-2.67L137.81 20.47zm-24.211 4.855h-7.022v-4.69h19.12v4.69h-7.021v18.43h-5.077v-18.43zM99.385 32.26v-.066c0-3.963-2.901-7.266-6.989-7.266s-6.923 3.237-6.923 7.2v.066c0 3.964 2.901 7.267 6.99 7.267 4.087 0 6.922-3.237 6.922-7.2m-19.22 0v-.067c0-6.573 5.176-11.957 12.297-11.957 7.12 0 12.23 5.318 12.23 11.891v.066c0 6.573-5.175 11.957-12.296 11.957-7.12 0-12.231-5.318-12.231-11.89m-11.904.032c2.538 0 4.021-1.52 4.021-3.5v-.067c0-2.28-1.582-3.5-4.12-3.5h-3.923v7.067h4.022zm-9.1-11.66h9.43c5.504 0 8.834 3.271 8.834 7.994v.066c0 5.35-4.153 8.125-9.33 8.125H64.24v6.937h-5.078V20.634zM36.477 40.387l3-3.6c2.077 1.717 4.253 2.807 6.89 2.807 2.077 0 3.33-.826 3.33-2.18v-.067c0-1.288-.792-1.948-4.649-2.939C40.4 33.217 37.4 31.93 37.4 27.34v-.066c0-4.195 3.363-6.97 8.077-6.97 3.362 0 6.23 1.058 8.571 2.94l-2.637 3.831c-2.044-1.42-4.055-2.278-6-2.278-1.946 0-2.967.892-2.967 2.014v.066c0 1.52.989 2.015 4.978 3.039 4.681 1.222 7.319 2.906 7.319 6.937v.066c0 4.59-3.495 7.167-8.473 7.167-3.494 0-7.022-1.222-9.791-3.7" fill="#32b496" fill-rule="evenodd"/></svg>