<svg xmlns="http://www.w3.org/2000/svg" viewBox="0 0 443 183" width="443" height="183"><path d="M98.7 66h9.6L89 97.2v19.3h-8.3V97.2L61.6 66h9.7l11.9 19.7 1.3 2.9h.9l1.4-2.9L98.7 66zM127.6 66h1.6l25.5 50.4h-9.5l-3.8-7.6h-26.1l-3.7 7.6h-9.4L127.6 66zm1.1 15.4h-.5l-9.1 19.7-.5.8h19.6l-.5-.8-9-19.7zM203.1 83.6l-16 16.6h-1.9l-16.1-16.6v32.9h-8.3V66h2.4l22.9 23.5L209.2 66h2.2v50.4h-8.3V83.6zM223.8 95.1V66h8.3v29.1c0 8.2 4.5 14.5 13.7 14.5s13.5-6.4 13.5-14.5V66h8.3v29.1c0 13.1-8 22.5-21.9 22.5-13.6 0-21.9-9.4-21.9-22.5zM299.5 101.4l4.9-10.9L316.2 66h9.3l-25.4 50.4h-1.7L273.1 66h9.3l11.9 24.5 4.6 10.9h.6zM380.9 95H340v14h29.9v7.4h-38.2V66H390v7.4h-50V88h40.9v7z"/></svg>