<svg xmlns="http://www.w3.org/2000/svg" width="331" height="122"><rect width="100%" height="100%" fill="none"/><g class="currentLayer"><path d="M0 0h331v122H0z"/><path fill="#ff0" d="M72.83 33.33h6.96L65.81 55.97v13.98h-6.04V55.97L45.85 33.33h7.02l8.67 14.34.98 2.14h.67l1.04-2.14 8.6-14.34zm21 0h1.16l18.55 36.62h-6.9l-2.75-5.55H84.91l-2.69 5.55h-6.84l18.45-36.62zm.79 11.17h-.37l-6.59 14.34-.37.61h14.22l-.37-.61-6.52-14.34zm54.02 1.59l-11.6 12.09h-1.4l-11.66-12.09v23.87h-6.04V33.33h1.71l16.66 17.09 16.78-17.09h1.59v36.62h-6.04V46.09zm15.01 8.36V33.33h6.04v21.12c0 5.92 3.3 10.56 9.95 10.56 6.65 0 9.83-4.64 9.83-10.56V33.33h6.04v21.12c0 9.52-5.8 16.36-15.87 16.36-9.95 0-15.99-6.84-15.99-16.36zm54.99 4.58l3.54-7.93 8.54-17.76h6.78l-18.43 36.62h-1.22l-18.37-36.62h6.78l8.67 17.76 3.36 7.93h.35zm59.09-4.64h-29.67v10.19h21.73v5.37h-27.77V33.33h42.34v5.37h-36.29v10.56h29.67v5.13zm17.23-20.66c.6.6.91 1.33.91 2.18 0 .85-.3 1.58-.91 2.19s-1.33.91-2.19.91-1.59-.3-2.19-.9c-.6-.6-.9-1.33-.9-2.18 0-.85.3-1.58.9-2.19.6-.61 1.33-.91 2.19-.91.86 0 1.59.3 2.19.9zm-.26 4.11c.53-.54.79-1.18.79-1.92s-.26-1.38-.78-1.91-1.16-.79-1.92-.79-1.4.27-1.92.8-.79 1.17-.79 1.92.26 1.39.78 1.92 1.16.79 1.91.79 1.4-.28 1.93-.81zm-.5-.85c-.39.4-.83.61-1.32.61s-.91-.15-1.24-.47c-.33-.31-.5-.72-.5-1.23s.17-.92.51-1.23.77-.47 1.27-.47c.51 0 .92.17 1.25.51l-.41.5c-.3-.25-.59-.38-.87-.38-.29 0-.53.1-.75.29a.96.96 0 0 0-.32.74c0 .3.11.56.32.77.21.21.47.32.79.32s.6-.14.86-.42l.41.46zM86.61 88.25l.68-1.52 1.64-3.41h1.3l-3.53 7.02h-.23l-3.52-7.02h1.3l1.66 3.41.64 1.52h.06zm5.64 2.1h-1.16v-7.02h1.16v7.02zm4.46 0h-2.62v-7.02h2.62c2.27 0 3.73 1.42 3.73 3.51s-1.46 3.51-3.73 3.51zm-1.46-6v4.96h1.38c1.5 0 2.63-.89 2.63-2.48s-1.14-2.48-2.63-2.48h-1.38zm11.26 3.01h-3.53v1.95h4.17v1.03h-5.32v-7.02h5.32v1.03h-4.17v2.02h3.53v.99zm1.37-.51c0-2.05 1.42-3.68 3.67-3.68 2.27 0 3.69 1.63 3.69 3.68 0 2.02-1.42 3.66-3.69 3.66-2.25 0-3.67-1.64-3.67-3.66zm6.17 0c0-1.45-.99-2.56-2.49-2.56-1.49 0-2.48 1.11-2.48 2.56 0 1.44.99 2.54 2.48 2.54s2.49-1.1 2.49-2.54zm10.41 2.77s-.78.89-2.47.89c-2.24 0-3.7-1.64-3.7-3.66 0-2.05 1.46-3.68 3.7-3.68 1.69 0 2.47.88 2.47.88l-.67.9s-.74-.68-1.78-.68c-1.5 0-2.53 1.12-2.53 2.58 0 1.44 1.03 2.55 2.53 2.55 1.12 0 1.78-.67 1.78-.67l.67.89zm1.16-6.3h3.04c1.77 0 2.84.85 2.84 2.38 0 1.1-.57 1.83-1.46 2.18v.07l1.74 2.24v.16h-1.29l-1.72-2.22h-2v2.22h-1.16v-7.03zm3 1.03h-1.85v2.76h1.92c.97 0 1.62-.43 1.62-1.37 0-.92-.66-1.39-1.69-1.39zm9.13 3.01h-3.53v1.95h4.17v1.03h-5.32v-7.02h5.32v1.03h-4.17v2.02h3.53v.99zm4.54-4.04h.22l3.56 7.02h-1.32l-.53-1.07h-3.64l-.51 1.07h-1.31l3.53-7.02zm.15 2.15h-.07l-1.26 2.75-.07.12h2.73l-.07-.12-1.26-2.75zm2.98-2.15h5.89v1.03h-2.36v5.99h-1.16v-5.99h-2.36v-1.03zm8.12 7.03h-1.16v-7.02h1.16v7.02zm1.37-3.5c0-2.05 1.42-3.68 3.67-3.68 2.27 0 3.69 1.63 3.69 3.68 0 2.02-1.42 3.66-3.69 3.66-2.25 0-3.67-1.64-3.67-3.66zm6.17 0c0-1.45-.99-2.56-2.49-2.56-1.49 0-2.48 1.11-2.48 2.56 0 1.44.99 2.54 2.48 2.54s2.49-1.1 2.49-2.54zm8.87 3.5h-.3l-4.86-4.7v4.7h-1.16v-7.02h.3l4.86 4.63v-4.63h1.16v7.02zm7.35-3.82l-.13-.13c-.41-.41-.69-.89-.69-1.51 0-.99.77-1.72 2-1.72 1.31 0 2.06.79 2.06 1.71 0 1.02-.74 1.52-1.54 1.92l1.58 1.5c.22-.42.34-.91.34-1.39v-.26h1.11v.23c0 .72-.22 1.51-.67 2.16l1.25 1.19v.11h-1.36l-.58-.56c-.55.43-1.25.71-2.12.71-1.84 0-2.76-.87-2.76-2.07 0-1 .72-1.51 1.51-1.89zm2.62 2.54l-1.87-1.81c-.56.29-.99.61-.99 1.14 0 .61.55 1.1 1.5 1.1.56-.01 1.01-.17 1.36-.43zm-1.67-2.95c.67-.28 1.21-.58 1.21-1.15 0-.44-.27-.83-.95-.83-.56 0-.92.33-.92.85-.01.44.26.77.66 1.13zm13.33-.35l-2.22 2.32h-.27l-2.24-2.32v4.58h-1.16v-7.02h.33l3.2 3.28 3.22-3.28h.3v7.02h-1.16v-4.58zm5.54-2.45h.22l3.56 7.02h-1.32l-.53-1.07h-3.64l-.51 1.07h-1.31l3.53-7.02zm.15 2.15h-.07l-1.26 2.75-.07.12h2.73l-.07-.12-1.26-2.75zm4.47-2.15h3.04c1.77 0 2.84.85 2.84 2.38 0 1.1-.57 1.83-1.46 2.18v.07l1.74 2.24v.16h-1.29l-1.72-2.22h-2v2.22h-1.16v-7.03zm3.01 1.03h-1.85v2.76h1.92c.97 0 1.62-.43 1.62-1.37-.01-.92-.66-1.39-1.69-1.39zm5.59 2.54l3.52-3.57h1.4v.14l-2.77 2.82 2.77 3.91v.15h-1.37l-2.24-3.22-1.32 1.36v1.86h-1.16v-7.02h1.16v3.57zm10.68.47h-3.53v1.95h4.17v1.03h-5.32v-7.02h5.32v1.03h-4.17v2.02h3.53v.99zm1.23-4.04h5.89v1.03h-2.36v5.99h-1.16v-5.99h-2.36v-1.03zm8.12 7.03h-1.16v-7.02h1.16v7.02zm8.15 0h-.3l-4.86-4.7v4.7h-1.16v-7.02h.3l4.86 4.63v-4.63h1.16v7.02zm7.14-2.99h-2.28v-.98h3.49v.6c0 2.11-1.18 3.53-3.31 3.53-2.28 0-3.67-1.64-3.67-3.66 0-2.05 1.43-3.68 3.7-3.68 1.81 0 2.62.9 2.62.9l-.69.89s-.71-.69-1.94-.69c-1.51 0-2.49 1.12-2.49 2.58 0 1.44.95 2.55 2.47 2.55 1.29 0 2.12-.84 2.12-2v-.04z"/></g></svg>