<svg viewBox="0 0 2080 515" xmlns="http://www.w3.org/2000/svg" xmlns:xlink="http://www.w3.org/1999/xlink"><clipPath id="a"><path d="m16 18h480v480h-480z"/></clipPath><clipPath id="b"><path d="m-95-93h2417v702h-2417z"/></clipPath><clipPath id="c"><path d="m-95-93h2417v702h-2417z"/></clipPath><clipPath id="d"><path d="m124 287h88l29 29-24 56z"/></clipPath><clipPath id="e"><path d="m-95-93h2417v702h-2417z"/></clipPath><clipPath id="f"><path d="m241 145v107h-72z"/></clipPath><clipPath id="g"><path d="m-95-93h2417v702h-2417z"/></clipPath><clipPath id="h"><path d="m105 316h136v56h-171z"/></clipPath><clipPath id="i"><path d="m-95-93h2417v702h-2417z"/></clipPath><clipPath id="j"><path d="m159 231h82v56h-117z"/></clipPath><clipPath id="k"><path d="m-95-93h2417v702h-2417z"/></clipPath><clipPath id="l"><path d="m388 230h-88l-29-29 24-56z"/></clipPath><clipPath id="m"><path d="m-95-93h2417v702h-2417z"/></clipPath><clipPath id="n"><path d="m271 372v-107h72z"/></clipPath><clipPath id="o"><path d="m-95-93h2417v702h-2417z"/></clipPath><clipPath id="p"><path d="m407 201h-136v-56h171z"/></clipPath><clipPath id="q"><path d="m-95-93h2417v702h-2417z"/></clipPath><clipPath id="r"><path d="m353 286h-82v-56h117z"/></clipPath><clipPath id="s"><path d="m-95-93h2417v702h-2417z"/></clipPath><g clip-path="url(#a)"><path clip-path="url(#b)" d="m11 13h490v490h-490z" fill="#1885d6"/></g><path clip-path="url(#c)" d="m665.3 17.6h3.4l80.6 192.4h-21.3l-12.9-31.9h-96.3l-12.6 31.9h-19.9zm42.6 143.4-33.6-84.8c-.9-2.2-1.8-4.7-2.7-7.3-.8-2.6-1.6-5.1-2.4-7.3-.7-2.6-1.5-5.3-2.2-8.1-.9 2.8-1.8 5.5-2.5 8.1-.7 2.2-1.5 4.7-2.4 7.3-.8 2.6-1.7 5.1-2.7 7.3l-33.6 84.8zm95.7-141.4h20.2v172.5h89.9v17.9h-110v-190.4zm166.4 0h20.4v190.4h-20.4zm178 192.6c-13.4 0-26.1-2.4-38.1-7.1-11.9-4.8-22.3-11.4-31.1-20s-15.7-18.9-20.9-30.8c-5.1-11.9-7.7-25.1-7.7-39.5s2.6-27.5 7.7-39.5c5.1-11.9 12.1-22.2 20.9-30.8s19.1-15.3 31.1-20c11.9-4.8 24.6-7.1 38.1-7.1 34 0 59.2 12.2 75.6 36.7l-15.4 11.2c-6.2-9.1-14.3-16.4-24.4-21.8s-22-8.1-35.8-8.1c-11.2 0-21.5 2-30.8 6s-17.4 9.6-24.2 16.7-12.1 15.5-16 25.1c-3.8 9.6-5.7 20.2-5.7 31.6s1.9 22 5.7 31.6 9.1 18 16 25.1c6.8 7.1 14.9 12.7 24.2 16.7s19.6 6 30.8 6c14 0 26.2-2.8 36.7-8.4s19.1-13.4 26-23.5l15.7 10.9c-8.4 12.3-19.3 21.9-32.6 28.7-13.3 6.9-28.6 10.3-45.8 10.3zm193.5-194.6h3.4l80.6 192.4h-21.3l-12.9-31.9h-96.3l-12.6 31.9h-19.9zm42.6 143.4-33.6-84.8c-.9-2.2-1.8-4.7-2.7-7.3s-1.6-5.1-2.4-7.3c-.7-2.6-1.5-5.3-2.2-8.1-.9 2.8-1.8 5.5-2.5 8.1-.7 2.2-1.5 4.7-2.4 7.3-.8 2.6-1.7 5.1-2.7 7.3l-33.6 84.8zm126.3-83.4c-1.5-1.5-3-3.3-4.5-5.3-1.5-2.1-2.9-4-4.2-5.9-1.5-2.1-3-4.2-4.5-6.4.2 2.6.5 5.2.8 7.8.2 2.2.4 4.6.6 7s.3 4.7.3 6.7v128.5h-19v-192.4h3.4l113.6 134.4c1.3 1.7 2.8 3.5 4.3 5.5 1.6 2 3 3.9 4.3 5.7 1.5 2.1 3 4.2 4.5 6.4-.4-2.6-.7-5.2-.8-7.8-.2-2.2-.3-4.6-.4-7s-.1-4.7-.1-6.7v-128.5h18.8v192.4h-3.4zm228.7-40.1h-58.5v-17.9h137.2v17.9h-58.5v172.5h-20.2zm131.9-17.9h115.9v17.9h-95.8v89h85.4v17.9h-85.4v47.6h99.7v18h-119.8zm-1275.1 267h122.6v34.4h-83.4v63h75.9v35h-75.9v58h-39.2zm296.2 190.4h-45.4l-31.4-48.2c-3.6.6-7.6.8-11.2.8h-13.4v47.4h-39.2v-190.4h52.6c53.2 0 85.1 25.5 85.1 72 0 29.7-13.2 48.4-36.7 59.1zm-89-81.5c31.9 0 45.9-10.1 45.9-37s-14.6-37.5-45.9-37.5h-12.3v74.5zm113.9-13.7c0-56.3 43.7-97.7 98.6-97.7s98.6 41.4 98.6 97.7-43.7 97.7-98.6 97.7-98.6-41.4-98.6-97.7zm156.8 0c0-35.6-23.5-62.7-58.2-62.7s-58.2 27.2-58.2 62.7c0 35.6 23.5 62.7 58.2 62.7s58.2-27.1 58.2-62.7zm130.2 6.7c-9.5-9-22.7-26-22.7-26s2.8 21 2.8 34.7v79.8h-36.7v-192.1h3.9l96 90.2c9.2 8.7 22.4 26 22.4 26s-2.5-21.6-2.5-34.7v-79.8h36.7v192.1h-3.9zm183.2-67.5h-54.3v-34.4h147.8v34.4h-54.3v156h-39.2zm122.3-34.4h126v34.4h-86.8v60.5h76.4v33.6h-76.4v27.4h90.7v34.5h-129.9zm222.9 101.9c-9.5-9-22.7-26-22.7-26s2.8 21 2.8 34.7v79.8h-36.7v-192.1h3.9l96 90.2c9.2 8.7 22.4 26 22.4 26s-2.5-21.6-2.5-34.7v-79.8h36.7v192.1h-3.9zm139.7-101.9h58.5c58.5 0 100.2 38.9 100.2 95.2s-41.4 95.2-100.2 95.2h-58.5zm56.6 156c42.3 0 61.6-25.2 61.6-60.8s-19.3-60.8-61.6-60.8h-17.4v121.5h17.4z" fill="#007ec0"/><g clip-path="url(#d)"><path clip-path="url(#e)" d="m119 282h127v95h-127z" fill="#cee5f5" opacity=".6"/></g><g clip-path="url(#f)"><path clip-path="url(#g)" d="m164 140h82v117h-82z" fill="#cee5f5" opacity=".6"/></g><g clip-path="url(#h)"><path clip-path="url(#i)" d="m65 311h181v66h-181z" fill="#fff"/></g><g clip-path="url(#j)"><path clip-path="url(#k)" d="m119 226h127v66h-127z" fill="#fff"/></g><g clip-path="url(#l)"><path clip-path="url(#m)" d="m266 140h127v95h-127z" fill="#cee5f5" opacity=".6"/></g><g clip-path="url(#n)"><path clip-path="url(#o)" d="m266 260h82v117h-82z" fill="#cee5f5" opacity=".6"/></g><g clip-path="url(#p)"><path clip-path="url(#q)" d="m266 140h181v66h-181z" fill="#fff"/></g><g clip-path="url(#r)"><path clip-path="url(#s)" d="m266 225h127v66h-127z" fill="#fff"/></g></svg>