<svg height="978pt" preserveAspectRatio="xMidYMid meet" viewBox="0 0 978 978" width="978pt" xmlns="http://www.w3.org/2000/svg"><path d="m9 8063c5-10 426-742 935-1628 510-885 1330-2313 1824-3172 493-859 900-1562 903-1563 4 0 570 965 1259 2145 689 1181 1256 2142 1260 2138 19-21 730-1134 730-1143 0-5-355-481-790-1057-434-577-790-1053-790-1058 0-6 134-238 299-515l299-505h903 902l1019 1345c560 739 1017 1349 1016 1355-2 6-520 835-1153 1843l-1150 1832h-1450-1450l-450-756c-370-623-451-753-461-740-6 9-193 349-415 756l-404 739-1423 1c-1352 0-1422-1-1413-17z" transform="matrix(.1 0 0 -.1 0 978)"/></svg>